<svg width="36" height="28" viewBox="0 0 36 28" fill="none" xmlns="http://www.w3.org/2000/svg">
<path d="M2.11743 1.23873C-0.843535 2.7197 2.11743 8.61822 3.81986 13.1645C5.52229 17.7109 8.36131 27.3498 11.7671 27.3498C15.173 27.3498 21.4169 19.4035 25.9573 14.8621C30.4978 10.3206 37.3105 2.94214 34.4724 0.676783C32.2558 -1.09687 27.6607 3.51482 21.9847 9.1909C14.8842 16.2923 14.6062 16.5704 12.9028 16.5704C11.1993 16.5704 6.6579 -1.0315 2.11743 1.23873Z" fill="#F4BF78"/>
<path d="M4.47889 9.69739L4.45547 9.71593C4.47206 9.83398 4.49644 9.79788 4.47889 9.69739Z" fill="#FFE66C"/>
<path d="M2.26611 9.18901C2.27154 9.18678 2.27707 9.18483 2.2827 9.18316C2.27653 9.18268 2.27033 9.18268 2.26416 9.18316L2.26611 9.18901Z" fill="#FFE66C"/>
<path d="M7.60637 6.0769C7.19076 6.63202 7.89905 7.57641 7.9488 8.26031C6.47564 7.87982 5.38881 6.95495 4.45809 7.0408C3.26102 7.55982 5.02199 8.06031 5.73515 8.75689C5.05223 9.17933 3.28638 8.11787 2.93907 8.99006L2.14688 8.18812C2.04932 8.18812 1.97224 8.18812 1.89322 8.18812C1.97615 8.42128 2.06297 8.65641 2.15175 8.8925C2.32736 9.01153 2.42297 9.11982 2.28249 9.19104C2.85712 9.21835 3.38492 9.3725 3.46394 8.90811C4.23662 9.08177 4.43955 9.51494 4.47857 9.70518L4.57613 9.61738C5.52345 10.0984 6.58491 10.4759 5.89906 10.8983C4.78979 10.1813 4.8415 11.0788 4.23565 11.0525L4.01906 10.8223C4.30004 11.3579 3.99272 11.7354 4.14101 12.0671L3.84833 11.954C4.25126 12.4164 5.7254 12.9939 5.25321 13.35C4.84638 13.1891 4.01614 12.6476 3.57321 12.511C3.65776 12.7296 3.74037 12.9458 3.82102 13.1598C3.90687 13.3891 3.99662 13.6349 4.08833 13.8886C4.18756 13.9196 4.29071 13.9364 4.39467 13.9383C4.29532 13.9205 4.19497 13.9088 4.09419 13.9032C4.73028 15.6593 5.50101 17.95 6.38393 20.1412C7.59173 19.8368 6.99369 18.4447 6.98588 17.473C4.83955 16.9852 6.68637 16.4115 5.8015 15.8144C7.46881 16.1734 7.18003 17.233 8.25612 17.5949C6.10979 15.7061 11.0405 15.0817 7.00247 13.3335C7.08758 13.298 7.18039 13.285 7.27197 13.2958C7.36355 13.3065 7.45082 13.3407 7.52539 13.3949C7.59954 13.1852 8.40344 13.1188 8.64734 12.9618C7.95856 12.6174 7.47661 12.9764 7.36637 12.3871C7.64929 12.031 8.73709 12.6057 9.31758 12.5979C8.60636 11.5393 8.57612 10.1988 6.9293 9.5803C7.45124 9.48274 8.4727 9.51591 8.72246 9.86323C8.13222 8.89348 8.461 8.6847 8.70978 8.35104C8.35661 7.57739 7.98685 6.80958 7.60637 6.0769Z" fill="#FFE66C"/>
<path d="M7.99069 13.7842C8.07033 13.8606 8.1735 13.9077 8.28337 13.9178C8.1585 13.8661 8.08142 13.8261 7.99069 13.7842Z" fill="#FFE66C"/>
<path d="M3.35901 10.1168L4.01852 10.8222C3.91218 10.6134 3.71803 10.3812 3.35901 10.1168Z" fill="#FFE66C"/>
<path d="M7.99032 13.7842C7.84266 13.645 7.68695 13.5147 7.52397 13.3939C7.4908 13.4886 7.62739 13.6144 7.99032 13.7842Z" fill="#FFE66C"/>
<path d="M3.1192 2.46716C3.27376 2.58038 3.45485 2.65194 3.64505 2.67497C3.43822 2.6018 3.26457 2.5296 3.1192 2.46716Z" fill="#FFE66C"/>
<path d="M1.98425 3.7696C3.22717 4.34911 1.89937 5.7491 2.93351 6.33446C2.6779 5.99495 2.70717 5.77642 3.14717 5.56471L4.70814 6.05251C4.52473 6.6047 3.2379 5.68081 4.034 6.47983C6.20277 6.98421 4.25253 5.70617 4.60473 5.38325C5.05741 5.66129 5.43106 5.97739 5.58033 6.2808C5.87984 5.5169 6.82911 4.95398 4.8379 3.83496C5.29448 3.74813 6.00375 3.99691 6.29643 4.21252C6.0096 3.9413 6.10911 3.86033 6.31691 3.83496C5.98962 3.32705 5.6247 2.8444 5.22521 2.39107C5.21509 2.4087 5.20913 2.42841 5.20778 2.4487C5.20642 2.46899 5.20972 2.48932 5.21741 2.50814L5.0418 2.28278L3.77351 2.71107C3.72571 2.70619 3.69156 2.6896 3.64961 2.6818C3.77839 2.72863 3.90424 2.77936 4.06619 2.82716C2.84668 2.80277 1.87791 3.10911 1.98425 3.7696Z" fill="#FFE66C"/>
<path d="M5.50638 6.84661C5.7015 6.6749 5.67809 6.47685 5.5776 6.27393C5.4977 6.45356 5.47291 6.65288 5.50638 6.84661Z" fill="#FFE66C"/>
<path d="M1.51614 7.06807C1.54053 7.0466 1.53273 7.01051 1.48102 6.95685L1.51614 7.06807Z" fill="#FFE66C"/>
<path d="M1.64926 1.7891C2.34584 1.88666 2.30682 2.10422 3.11853 2.47203C2.69609 2.12081 2.83072 1.55398 1.64926 1.7891Z" fill="#FFE66C"/>
<path d="M6.29361 4.20557C6.3258 4.23581 6.35409 4.2641 6.39702 4.30313C6.36763 4.26561 6.33277 4.23273 6.29361 4.20557Z" fill="#FFE66C"/>
<path d="M9.59793 16.752C9.66566 16.942 9.74416 17.128 9.83306 17.309C9.90623 17.2417 9.84281 17.0661 9.59793 16.752Z" fill="#FFD277"/>
<path d="M11.784 21.2017C11.784 21.4348 11.8503 21.7295 12.0484 22.1285L11.784 21.2017Z" fill="#FFD277"/>
<path d="M10.8573 21.991L10.8865 21.9852C10.9256 21.873 10.8865 21.8945 10.8573 21.991Z" fill="#FFD277"/>
<path d="M9.39496 16.4984C9.48569 16.6018 9.53642 16.673 9.59691 16.7521C9.56091 16.6467 9.48955 16.5571 9.39496 16.4984Z" fill="#FFD277"/>
<path d="M12.2397 24.4017C14.1724 25.4895 11.9743 23.4466 12.5743 23.4515C12.0768 23.1646 11.6768 22.7861 11.3939 23.1636C10.787 22.6563 10.8036 22.1783 10.8563 21.9929L10.7343 22.029C10.11 21.1637 9.33826 20.3461 10.1412 20.2856C10.8007 21.43 11.1646 20.6085 11.6924 20.908L11.7782 21.2007C11.7724 20.5959 12.2182 20.4007 12.2378 20.0368L12.4475 20.271C12.3002 19.6759 11.2514 18.4895 11.8348 18.389C12.2553 18.8671 13.1031 20.4768 13.268 19.9051C13.8982 20.6193 13.5656 21.1002 12.9821 21.1949C13.5675 21.0973 14.8504 22.0134 14.5197 22.4934C15.5051 23.2251 14.5197 21.7441 15.1373 21.9139C14.8358 21.6983 14.6046 21.3373 14.3197 21.0934C15.5031 22.2193 15.1929 20.3754 14.3948 19.5666L14.6504 20.6105C13.6748 19.7237 13.5568 18.6115 12.867 18.2573C14.5256 19.5051 13.1978 16.4515 14.6563 17.4768L13.7538 16.871C13.8937 16.8302 14.0209 16.7544 14.1233 16.6508C14.2258 16.5472 14.3001 16.4191 14.3392 16.2788C13.8299 16.5364 13.4348 16.5646 12.9002 16.5646C12.4963 16.5646 11.9314 15.5686 11.2465 14.0886C11.0417 15.5393 7.84753 14.6554 10.2709 17.6007C10.1791 17.5935 10.0907 17.5628 10.0142 17.5115C9.93762 17.4603 9.87554 17.3902 9.83386 17.3081C9.67289 17.4612 8.92948 17.1539 8.63875 17.1812C9.09338 17.8017 9.68264 17.7012 9.51679 18.2778C9.10216 18.4651 8.3968 17.4573 7.8729 17.1978C8.02314 18.4661 7.43778 19.671 8.62021 20.9724C8.11289 20.8202 7.21826 20.3256 7.1568 19.8993C7.21631 20.7139 7.03192 20.9598 6.7851 21.1022C6.88266 21.3318 6.98022 21.5594 7.07778 21.7851C7.08948 21.751 7.09924 21.7158 7.11192 21.6876C8.24948 22.6993 8.79387 24.0183 9.66118 24.3675C10.9636 24.4514 9.62508 23.2027 9.31094 22.2583C10.109 22.1929 11.1978 23.9451 11.9051 23.3266L12.2397 24.4017Z" fill="#FFD277"/>
<path d="M12.5746 23.4515C12.7813 23.5852 13.0141 23.6734 13.2575 23.7101C12.8936 23.5228 12.6897 23.4554 12.5746 23.4515Z" fill="#FFD277"/>
<path d="M24.3142 8.01645C25.0518 8.12474 25.5942 7.17255 25.323 5.87988C25.044 6.1511 24.7611 6.42752 24.4742 6.70914C24.5913 7.24377 24.3611 7.6184 24.3142 8.01645Z" fill="#FFD277"/>
<path d="M12.6985 27.1784C12.7882 27.1491 12.8799 27.115 12.9726 27.0808C12.8097 26.8203 12.6614 26.5599 12.4848 26.2321C12.4966 26.558 12.569 26.879 12.6985 27.1784Z" fill="#FFD277"/>
<path d="M10.6927 25.6925C10.7658 26.1101 10.64 26.2915 10.1512 26.2779L8.98046 25.1354C9.40095 24.7286 10.1249 26.1393 9.78144 25.0662C8.73168 24.1784 8.76973 24.6115 8.8429 25.1023C9.37851 25.9013 9.93753 26.5403 10.517 26.9286C10.7668 26.5374 10.997 26.153 10.6927 25.6925Z" fill="#FFD277"/>
<path d="M16.9003 18.6524C16.1081 18.4963 15.9715 19.2104 16.1462 19.9509C17.113 20.1997 16.5188 18.9753 16.9003 18.6524Z" fill="#FFD277"/>
<path d="M16.0303 25.0525L16.1034 24.991L14.8449 23.1744C14.0439 23.1588 15.1278 24.231 16.0303 25.0525Z" fill="#FFD277"/>
<path d="M8.35529 24.3158C8.37675 24.3519 8.39724 24.389 8.4187 24.4241C8.52155 24.3222 8.59762 24.1966 8.64016 24.0582C8.5745 24.073 8.51376 24.1044 8.46385 24.1495C8.41393 24.1947 8.37653 24.2519 8.35529 24.3158Z" fill="#FFD277"/>
<path d="M12.3516 25.9802C12.4033 26.0777 12.4394 26.1451 12.4852 26.229C12.4787 26.072 12.4878 25.9148 12.5126 25.7597C12.3204 25.6514 12.1428 25.5889 12.3516 25.9802Z" fill="#FFD277"/>
<path d="M12.5845 25.4807C12.5544 25.572 12.5306 25.6652 12.5133 25.7597C12.7679 25.8934 13.0528 26.0983 12.5845 25.4807Z" fill="#FFD277"/>
<path d="M15.1384 21.915C15.2378 21.9897 15.3508 22.0444 15.4711 22.0759C15.3679 22.0076 15.256 21.9535 15.1384 21.915Z" fill="#FFD277"/>
<path d="M21.2867 12.5921C22.074 12.7687 21.1355 11.8409 20.5335 11.0975C19.8389 11.3775 21.3052 11.9345 21.2867 12.5921Z" fill="#FFD277"/>
<path d="M21.8019 9.36768C21.4644 9.70523 21.1415 10.0291 20.8341 10.3355C21.446 10.5558 22.017 10.8763 22.5239 11.2838C22.8459 10.7755 22.3698 10.076 21.8019 9.36768Z" fill="#FFD277"/>
<path d="M23.6384 10.8535C22.653 8.81057 23.8891 9.79496 23.5828 8.13253L23.414 8.03497C23.3789 7.96765 23.3535 7.90619 23.3282 7.8457L22.5477 8.62618C22.9564 9.52179 22.3818 9.56569 23.6384 10.8535Z" fill="#FFD277"/>
<path d="M20.7588 12.9685C21.4856 12.8436 20.0193 12.2856 19.8964 11.6866L20.2368 11.8817L19.9442 11.229L19.4193 11.751C19.8378 11.8758 20.3003 12.2231 20.7588 12.9685Z" fill="#FFD277"/>
<path d="M28.6622 2.828C28.1744 3.23678 27.6622 3.68751 27.1344 4.16946L27.2817 4.34507C28.6359 4.84263 28.5081 3.66605 28.6622 2.828Z" fill="#FFD277"/>
<path d="M18.7158 12.4437L18.3714 12.7823C18.3443 12.8366 18.3364 12.8985 18.349 12.9579C19.2719 13.3744 19.0036 12.9462 18.7158 12.4437Z" fill="#FFD277"/>
<path d="M26.6297 5.86118C27.1106 5.62021 26.9019 5.14119 26.6072 4.65631C26.444 4.80851 26.2791 4.96363 26.1126 5.12168C26.2493 5.19757 26.3669 5.30361 26.4565 5.43175C26.5461 5.55988 26.6053 5.70674 26.6297 5.86118Z" fill="#FFD277"/>
<path d="M30.4467 1.62035L30.4184 2.43206C31.7374 3.2623 29.9101 1.00865 31.0213 1.43304C30.9553 1.3629 30.8842 1.29769 30.8087 1.23792C30.6555 1.33548 30.5013 1.43304 30.3423 1.54328C30.3774 1.56669 30.4126 1.59011 30.4467 1.62035Z" fill="#FFD277"/>
<path d="M33.2138 3.13843C33.2438 3.27351 33.2621 3.41093 33.2685 3.54915C33.3602 3.51989 33.3163 3.35891 33.2138 3.13843Z" fill="#FFD277"/>
<path d="M33.3345 4.00373L33.7569 4.82129L33.7101 4.5169C33.8515 4.47203 33.475 3.95593 33.3345 4.00373Z" fill="#FFD277"/>
<path d="M29.7799 2.17155L29.6657 2.02911L29.5516 2.11497C29.629 2.12791 29.7053 2.14683 29.7799 2.17155Z" fill="#FFD277"/>
<path d="M31.5585 2.05149C32.9956 2.68954 30.7458 0.56662 32.2034 1.35686C32.4863 1.91296 32.9985 2.6749 33.2131 3.13832C33.0892 2.36759 32.6551 1.6993 32.3058 1.00662C32.5488 0.60662 32.94 1.27491 33.2883 1.63588C33.2346 1.26028 32.9956 0.787107 32.7868 0.34906C32.2395 0.480214 31.7152 0.693354 31.2317 0.981253C31.3033 1.34834 31.4129 1.70701 31.5585 2.05149Z" fill="#FFD277"/>
<path d="M16.4567 15.3891C16.3613 15.2128 16.2845 15.0271 16.2274 14.835C16.0762 14.9716 15.9347 15.0974 15.8021 15.2135C16.6011 15.4311 17.2284 16.7286 18.0645 17.1755C19.2645 17.1638 16.9035 15.3628 16.6011 14.6711L16.4567 15.3891Z" fill="#FFD277"/>
<path d="M31.8758 4.17254L32.4407 3.98229L31.4514 3.35596L31.8758 4.17254Z" fill="#FFD277"/>
</svg>
