<svg width="287" height="128" viewBox="0 0 287 128" fill="none" xmlns="http://www.w3.org/2000/svg">
<g filter="url(#filter0_d)">
<path d="M17 25.0001C17 19.4772 21.4772 15.0001 27 15.0001L260 15C265.523 15 270 19.4772 270 25V67.603V98.6858C270 104.209 265.523 108.686 260 108.686H178.553H119.246H88.7973H73.5H51.6776H27C21.4772 108.686 17 104.209 17 98.6858V25.0001Z" fill="white"/>
<path d="M27 17.0001L260 17C264.418 17 268 20.5817 268 25V67.603V98.6858C268 103.104 264.418 106.686 260 106.686H178.553H119.246H88.7973H73.5H51.6776H27C22.5817 106.686 19 103.104 19 98.6858V25.0001C19 20.5818 22.5817 17.0001 27 17.0001Z" stroke="#91C29C" stroke-width="4"/>
</g>
<defs>
<filter id="filter0_d" x="0" y="0" width="287" height="127.686" filterUnits="userSpaceOnUse" color-interpolation-filters="sRGB">
<feFlood flood-opacity="0" result="BackgroundImageFix"/>
<feColorMatrix in="SourceAlpha" type="matrix" values="0 0 0 0 0 0 0 0 0 0 0 0 0 0 0 0 0 0 127 0" result="hardAlpha"/>
<feOffset dy="2"/>
<feGaussianBlur stdDeviation="8.5"/>
<feColorMatrix type="matrix" values="0 0 0 0 0 0 0 0 0 0 0 0 0 0 0 0 0 0 0.17 0"/>
<feBlend mode="normal" in2="BackgroundImageFix" result="effect1_dropShadow"/>
<feBlend mode="normal" in="SourceGraphic" in2="effect1_dropShadow" result="shape"/>
</filter>
</defs>
</svg>
