<svg width="586" height="245" viewBox="0 0 586 245" fill="none" xmlns="http://www.w3.org/2000/svg">
<g filter="url(#filter0_d)">
<path d="M17 30.0001C17 21.7158 23.7157 15.0001 32 15.0001L553.888 15C562.216 15 568.949 21.7841 568.887 30.1119L568.176 125.445V136.984V150.996V175.031C568.176 183.199 561.642 189.865 553.476 190.028L325.196 194.596C322.519 194.65 319.976 195.774 318.135 197.718L291.352 226L264.569 197.717C262.729 195.774 260.186 194.649 257.51 194.595L31.6969 190.031C23.5324 189.866 17 183.201 17 175.034V30.0001Z" fill="white"/>
<path d="M566.176 125.43L566.176 125.438V125.445V136.984V150.996V175.031C566.176 182.11 560.513 187.887 553.436 188.029L325.156 192.596C321.944 192.661 318.892 194.01 316.683 196.343L291.352 223.091L266.021 196.342C263.813 194.01 260.762 192.66 257.551 192.596L31.7373 188.032C24.6614 187.889 19 182.112 19 175.034V30.0001C19 22.8204 24.8203 17.0001 32 17.0001L553.888 17C561.105 17 566.941 22.8796 566.887 30.097L566.176 125.43Z" stroke="#E4F4E7" stroke-width="4"/>
</g>
<defs>
<filter id="filter0_d" x="0" y="0" width="585.888" height="245" filterUnits="userSpaceOnUse" color-interpolation-filters="sRGB">
<feFlood flood-opacity="0" result="BackgroundImageFix"/>
<feColorMatrix in="SourceAlpha" type="matrix" values="0 0 0 0 0 0 0 0 0 0 0 0 0 0 0 0 0 0 127 0"/>
<feOffset dy="2"/>
<feGaussianBlur stdDeviation="8.5"/>
<feColorMatrix type="matrix" values="0 0 0 0 0 0 0 0 0 0 0 0 0 0 0 0 0 0 0.17 0"/>
<feBlend mode="normal" in2="BackgroundImageFix" result="effect1_dropShadow"/>
<feBlend mode="normal" in="SourceGraphic" in2="effect1_dropShadow" result="shape"/>
</filter>
</defs>
</svg>
