<svg width="787" height="329" viewBox="0 0 787 329" fill="none" xmlns="http://www.w3.org/2000/svg">
<g filter="url(#filter0_d)">
<path d="M17 25.0002C17 19.4773 21.4772 15.0002 27 15.0002L713.756 15C719.352 15 723.859 19.592 723.754 25.187L720.605 193.565C720.542 196.922 723.246 199.677 726.604 199.677H770L725.944 236.83C724.669 237.904 723.899 239.461 723.819 241.127L720.951 300.483C720.693 305.812 716.298 310 710.962 310H160.725H116.018H70.6955H27C21.4772 310 17 305.523 17 300V25.0002Z" fill="white"/>
<path d="M27 17.0002L713.756 17C718.233 17 721.839 20.6736 721.755 25.1496L718.605 193.528C718.522 198.004 722.127 201.677 726.604 201.677H764.526L724.654 235.301C722.955 236.734 721.928 238.81 721.821 241.03L718.953 300.386C718.747 304.649 715.231 308 710.962 308H160.725H116.018H70.6955H27C22.5817 308 19 304.418 19 300V25.0002C19 20.5819 22.5817 17.0002 27 17.0002Z" stroke="#E4F4E7" stroke-width="4"/>
</g>
<defs>
<filter id="filter0_d" x="0" y="0" width="787" height="329" filterUnits="userSpaceOnUse" color-interpolation-filters="sRGB">
<feFlood flood-opacity="0" result="BackgroundImageFix"/>
<feColorMatrix in="SourceAlpha" type="matrix" values="0 0 0 0 0 0 0 0 0 0 0 0 0 0 0 0 0 0 127 0"/>
<feOffset dy="2"/>
<feGaussianBlur stdDeviation="8.5"/>
<feColorMatrix type="matrix" values="0 0 0 0 0 0 0 0 0 0 0 0 0 0 0 0 0 0 0.17 0"/>
<feBlend mode="normal" in2="BackgroundImageFix" result="effect1_dropShadow"/>
<feBlend mode="normal" in="SourceGraphic" in2="effect1_dropShadow" result="shape"/>
</filter>
</defs>
</svg>
