<svg width="53" height="52" viewBox="0 0 53 52" fill="none" xmlns="http://www.w3.org/2000/svg">
<path fill-rule="evenodd" clip-rule="evenodd" d="M12.654 1.46711C11.4653 3.50042 10.4822 5.69638 9.74109 8.03614C4.36157 25.0197 13.7685 43.1485 30.752 48.528C34.2225 49.6273 37.7409 50.1091 41.1885 50.035C40.116 49.7934 39.0448 49.5042 37.9774 49.1661C37.6516 49.0629 37.3281 48.9558 37.007 48.8448C35.0222 48.6199 33.0301 48.2006 31.054 47.5747C14.5969 42.3619 5.48166 24.7951 10.6944 8.3381C10.9761 7.44872 11.2939 6.58078 11.6457 5.73539C11.8981 4.31064 12.2333 2.886 12.654 1.46711Z" fill="#2D6255"/>
<path d="M12.9924 1.32402C12.8462 1.30268 12.3302 1.21318 12.1895 1.33968C12.1686 1.35847 12.422 1.64541 12.4398 1.74292C12.4645 1.87864 12.5226 2.02519 12.5798 2.15324C12.5958 2.18903 12.4648 2.12881 12.4291 2.11751C12.3223 2.08368 12.33 2.11884 12.2399 2.16557C11.9697 2.3058 12.2833 2.51129 12.3945 2.70048C12.5033 2.88578 12.2481 2.68798 12.1255 2.73527C11.9176 2.8154 11.9467 2.69091 12.0645 2.88993C12.1771 3.08036 12.315 3.15425 12.4374 3.33203C12.5707 3.52557 12.2943 3.37072 12.1651 3.32979C11.9796 3.27101 11.4615 3.0426 11.6012 3.17816C11.7835 3.35508 11.9581 3.53196 12.1517 3.70352C12.2795 3.81671 11.8337 3.65676 11.7736 3.63774C11.5419 3.56433 11.3585 3.64378 11.6569 3.81676C11.7509 3.87124 11.8067 3.98946 11.876 4.07214C11.9269 4.13286 12.0129 4.12461 12.0577 4.1897C12.1976 4.3928 11.9566 4.23567 11.8145 4.19064C11.6454 4.13707 11.4424 4.03368 11.3057 3.92151" stroke="white" stroke-linecap="round" stroke-linejoin="round"/>
<path d="M40.968 49.5481C40.9474 49.6873 41.01 50.5266 40.7236 50.3766C40.5444 50.2827 40.4085 50.2496 40.3434 50.0521C40.332 50.0177 40.1663 49.7026 40.1196 49.7833C40.0469 49.9086 40.0883 50.7031 39.7533 50.4472C39.5981 50.3286 39.7198 49.9436 39.6385 49.7869C39.6101 49.7322 39.5526 49.6742 39.5182 49.6078C39.4581 49.4919 39.4683 49.6772 39.4531 49.7281C39.3992 49.9092 39.3196 50.0811 39.3401 50.2743C39.352 50.3867 39.439 50.5869 39.2569 50.5179C39.128 50.4691 39.2234 49.8315 39.1466 49.6731C39.1094 49.5964 39.0378 49.5425 38.9969 49.4637C38.8932 49.2637 38.9691 49.6568 38.97 49.7191C38.9727 49.8973 38.9496 50.1245 38.8954 50.2955C38.815 50.5494 38.7666 49.9977 38.7651 49.9302C38.7608 49.7224 38.7558 49.526 38.7596 49.3225C38.7659 48.9855 38.7517 49.2149 38.6904 49.4086C38.6127 49.6539 38.4081 50.3973 38.4572 50.1447C38.4809 50.023 38.4062 49.9147 38.377 49.8013C38.3554 49.7171 38.4016 49.5939 38.4024 49.5033C38.4033 49.3985 38.4532 49.2889 38.3745 49.2125" stroke="white" stroke-linecap="round" stroke-linejoin="round"/>
</svg>
