<svg width="163" height="30" viewBox="0 0 163 30" fill="none" xmlns="http://www.w3.org/2000/svg">
<path d="M2.00956 19.2781H2.30125C4.42712 15.6256 4.83154 11.5983 4.83154 7.88832V7.3414H2.91235V3.02792H16.9516C18.4368 3.02792 19.0774 3.66054 19.0774 5.12723V19.2781H19.4273C20.9125 19.2781 21.4368 19.7959 21.4368 21.2626V27.6188H16.7771V24.2251C16.7771 23.8514 16.5731 23.5925 16.2232 23.5925H5.30127C4.89328 23.5925 4.66065 23.8222 4.66065 24.2251V27.6188H0V21.2626C0 19.7959 0.524312 19.2781 2.00956 19.2781ZM13.8934 19.3073V7.97491C13.8934 7.57201 13.6598 7.3414 13.2527 7.3414H9.78656V8.29122C9.78656 11.5701 9.26224 16.1433 7.54347 19.3073H13.8934ZM24.9191 14.5202C25.4408 13.1878 26.4402 12.7284 26.4402 12.7284L26.4339 12.6719C26.4339 12.6719 25.7745 12.5429 25.1643 11.5692L24.3384 10.2439C24.0897 9.86658 23.7613 9.81622 23.1825 9.88072L22.0247 10.0097L21.5496 5.86588L25.0524 5.478C26.1261 5.35872 26.722 5.46563 27.3224 6.3536L29.5905 9.77558C29.9063 10.2324 30.4566 10.1714 30.8333 10.129L31.065 10.1034L30.4647 4.87277L35.2407 4.34264L35.8402 9.57325L36.071 9.54674C36.4477 9.50521 36.9971 9.44337 37.202 8.92826L38.6389 5.09189C39.0219 4.09348 39.5811 3.85492 40.6521 3.73741L44.154 3.346L44.6291 7.49072L43.4713 7.61972C42.8925 7.68422 42.5847 7.80615 42.4281 8.22849L41.9226 9.70313C41.5486 10.7872 40.9384 11.0585 40.9384 11.0585L40.9446 11.1159C40.9446 11.1159 42.0264 11.3421 42.8361 12.5252L46.5107 17.9908L40.8382 18.6243L38.026 14.2993C37.6127 13.7692 37.2655 13.5448 36.7152 13.6066L36.3099 13.6517L36.9291 19.0537L32.1539 19.5838L31.5348 14.1818L31.1294 14.2278C30.5801 14.2887 30.2911 14.5812 30.0092 15.1917L28.2466 20.0203L22.574 20.6547L24.9191 14.5202ZM49.3453 25.8579C50.1612 25.8579 51.0936 25.6282 51.5883 24.3912L51.7673 23.9601L47.019 13.7781C46.84 13.4043 46.7282 13.3177 46.3783 13.3177H45.8245V9.14738H49.4929C50.3375 9.14738 50.9495 9.57855 51.2403 10.3552L53.4538 16.3377C53.7455 17.1435 54.0077 18.6393 54.0077 18.6393H54.0658C54.0658 18.6393 54.328 17.1435 54.5606 16.3377L56.2212 10.3552C56.4252 9.57855 57.2117 9.14738 57.9982 9.14738H61.756V13.3177H61.2031C60.8533 13.3177 60.6493 13.4061 60.5034 13.7781L55.9609 25.5416C54.6796 28.8205 52.0867 30 49.6978 30C48.1428 29.9939 46.6427 29.4321 45.4746 28.4184L47.2802 24.909C47.2802 24.909 48.1553 25.8579 49.3488 25.8579H49.3453ZM63.8014 8.4158C63.8452 8.01555 63.6386 7.76197 63.2332 7.71868L62.1327 7.59852L62.5846 3.45202L67.2175 3.94416C68.6947 4.10055 69.2637 4.79767 69.1045 6.25641L68.7555 9.45927L73.3016 9.94169L73.8787 4.65188L78.8892 5.18201L77.8039 15.1387C77.761 15.5398 77.9677 15.7925 78.373 15.8358L79.4735 15.9525L79.0261 20.0998L74.3923 19.6068C72.916 19.4504 72.347 18.7533 72.5062 17.2955L72.8704 13.9495L68.3243 13.4662L67.7311 18.9L62.7206 18.3699L63.8014 8.4158ZM81.9277 12.9502H80.1803V8.77982H90.9278C92.4131 8.77982 93.0546 9.41244 93.0546 10.88V14.1871H88.9764V13.5837C88.9764 13.1808 88.7438 12.9502 88.3358 12.9502H86.9678V23.5907H81.9277V12.9502ZM93.2085 15.706C94.6132 15.4215 95.7057 14.6457 95.2583 10.2695L95.142 9.12087L93.4026 9.29758L92.9794 5.1449L104.832 3.96536C106.31 3.81781 107.011 4.38417 107.158 5.84379L107.963 13.7136C108.005 14.1138 108.26 14.3197 108.665 14.279L109.766 14.1695L110.19 18.3221L105.553 18.7834C104.075 18.9309 103.374 18.3646 103.227 16.9049L102.422 9.06432C102.381 8.66319 102.123 8.42905 101.717 8.46881L99.8653 8.65877L99.9879 9.86128C100.555 15.4126 99.5405 19.5317 93.6496 20.0318L93.2085 15.706ZM112.28 13.3999C112.28 12.997 112.047 12.7664 111.639 12.7664H110.532V8.59604H114.814C116.299 8.59604 116.94 9.22866 116.94 10.6962V15.2695C116.94 15.7864 116.911 16.3624 116.882 16.7362H116.94C117.202 16.1318 117.493 15.7007 117.755 15.2695L121.892 8.59604H126.93V18.6058C126.93 19.0087 127.163 19.2384 127.571 19.2384H128.677V23.4087H124.396C122.911 23.4087 122.27 22.7761 122.27 21.3094V16.7936C122.27 16.4481 122.27 15.8729 122.328 15.2978H122.27C122.008 15.9021 121.688 16.3624 121.454 16.7644L117.319 23.4087H112.28V13.3999ZM128.713 7.15674C128.647 6.75914 128.379 6.57007 127.977 6.63545L126.884 6.81216L126.194 2.69747L130.792 1.94381C132.256 1.70436 132.994 2.22477 133.237 3.67203L133.746 6.7079L134.35 6.60894C134.781 6.53826 135.293 6.42516 135.476 5.92949L137.256 0.883548L142.658 0L140.115 6.48083C139.726 7.50663 139.228 7.87948 139.228 7.87948L139.238 7.93603C139.238 7.93603 140.085 8.05973 140.822 8.93091L142.041 10.3932C142.338 10.7528 142.64 10.7908 143.214 10.6962L144.278 10.5195L144.969 14.6342L141.204 15.2527C140.141 15.4294 139.538 15.3508 138.892 14.4946L136.297 11.0125C135.958 10.5708 135.498 10.6476 135.124 10.7086L134.435 10.8217L135.34 16.2113L130.368 17.0251L128.713 7.15674ZM146.294 8.44407C146.294 8.04117 146.061 7.81145 145.653 7.81145H144.546V3.63668H148.828C150.314 3.63668 150.954 4.26931 150.954 5.736V10.3092C150.954 10.827 150.925 11.4022 150.896 11.7759H150.954C151.217 11.1716 151.507 10.7404 151.769 10.3092L155.906 3.63668H160.944V13.6455C160.944 14.0484 161.178 14.2781 161.586 14.2781H162.692V18.4485H158.41C156.925 18.4485 156.284 17.8159 156.284 16.3492V11.8334C156.284 11.4888 156.284 10.9127 156.342 10.3375H156.284C156.022 10.9419 155.702 11.4022 155.468 11.8051L151.333 18.4485H146.294V8.44407Z" fill="url(#paint0_linear)"/>
<defs>
<linearGradient id="paint0_linear" x1="81.4741" y1="1.41544" x2="81.3389" y2="21.3483" gradientUnits="userSpaceOnUse">
<stop stop-color="#3BAF90"/>
<stop offset="1" stop-color="#2D6255"/>
</linearGradient>
</defs>
</svg>
