<?xml version="1.0" encoding="utf-8"?>
<!-- Generator: Adobe Illustrator 23.0.5, SVG Export Plug-In . SVG Version: 6.00 Build 0)  -->
<svg version="1.1" id="图层_1" xmlns="http://www.w3.org/2000/svg" xmlns:xlink="http://www.w3.org/1999/xlink" x="0px" y="0px"
	 viewBox="0 0 652 323.1" style="enable-background:new 0 0 652 323.1;" xml:space="preserve">
<style type="text/css">
	.st0{fill:#000106;}
</style>
<g>
	<path id="XMLID_7_" class="st0" d="M202.4,92.3c-2.4,2.2-4.8,4.3-7.1,6.6c-8.3,7.9-14.6,17-16.8,28.4c-3,15.8,0.2,30.3,9.8,43.3
		c4.8,6.5,10.5,11.9,18.1,15c0.9,0.4,1.8,0.7,2.9,1.1c-1,2.7-1.9,5.3-2.9,7.9c-6.2,15-14.2,28.9-25.2,40.9c-2,2.2-4.4,4.3-6.7,6.2
		c-8,6.5-17,9-27.2,6c-5.1-1.5-10.1-3.1-15.1-4.7c-5.2-1.6-10.4-2.9-15.9-3c-6.8-0.2-13,1.9-19.3,4.2c-4.8,1.8-9.5,3.6-14.4,4.7
		c-7.7,1.8-14.7-0.5-21.1-4.9c-6.5-4.4-11.6-10.1-16-16.4c-11.1-15.9-19.6-33-24.8-51.7c-4.6-16.6-5.9-33.5-3.3-50.6
		c2.3-15.1,7.9-28.7,18.5-39.9c11-11.6,24.5-16.4,40.4-14.9c7.9,0.8,15.4,3.1,23,5.3c3.2,0.9,6.4,1.6,9.6,2.4
		c4.6,1.2,9.1,0.6,13.5-0.7c6.2-1.8,12.4-3.9,18.6-5.7c9.2-2.7,18.6-3.5,28.1-1.7c12.3,2.4,22.1,9,30.2,18.3c1,1.2,2,2.3,3,3.5
		C202.2,92,202.3,92.1,202.4,92.3z"/>
	<path id="XMLID_6_" class="st0" d="M156.1,16.4c0.1,2.7,0.5,5.3,0.3,7.8c-1,13.7-6.3,25.5-15.8,35.4c-4.3,4.5-9,8.4-14.8,10.7
		c-5,2-10.2,2.4-15.5,2.8c-0.1,0-0.2-0.1-0.3-0.1C110.7,42.4,126.2,22.6,156.1,16.4z"/>
</g>
<g>
	<path class="st0" d="M268.2,52.8c12.2-2,28.2-3.8,48.6-3.8c25,0,43.3,5.8,55,16.3c10.8,9.3,17.2,23.6,17.2,41
		c0,17.7-5.2,31.7-15.1,41.9c-13.4,14.3-35.2,21.5-59.9,21.5c-7.6,0-14.5-0.3-20.4-1.7v78.5h-25.3V52.8z M293.5,147.3
		c5.5,1.5,12.5,2,20.9,2c30.5,0,49.2-14.8,49.2-41.9c0-25.9-18.3-38.4-46.3-38.4c-11.1,0-19.5,0.9-23.9,2V147.3z"/>
	<path class="st0" d="M480.2,246.5l-2-17.7h-0.9c-7.9,11.1-23,20.9-43.1,20.9c-28.5,0-43.1-20.1-43.1-40.4c0-34,30.3-52.7,84.6-52.4
		V154c0-11.6-3.2-32.6-32-32.6c-13.1,0-26.8,4.1-36.7,10.5l-5.8-16.9c11.6-7.6,28.5-12.5,46.3-12.5c43.1,0,53.5,29.4,53.5,57.6v52.7
		c0,12.2,0.6,24.1,2.3,33.7H480.2z M476.4,174.7c-27.9-0.6-59.6,4.4-59.6,31.7c0,16.6,11.1,24.4,24.1,24.4c18.3,0,30-11.6,34-23.6
		c0.9-2.6,1.5-5.5,1.5-8.1V174.7z"/>
	<path class="st0" d="M535.2,105.8l30.8,83.2c3.2,9.3,6.7,20.4,9,28.8h0.6c2.6-8.4,5.5-19.2,9-29.4l27.9-82.6h27.1l-38.4,100.4
		c-18.3,48.3-30.8,73-48.3,88.1c-12.5,11.1-25,15.4-31.4,16.6l-6.4-21.5c6.4-2,14.8-6.1,22.4-12.5c7-5.5,15.7-15.4,21.5-28.5
		c1.2-2.6,2-4.7,2-6.1c0-1.5-0.6-3.5-1.7-6.7l-52.1-129.7H535.2z"/>
</g>
</svg>
