<svg width="27" height="25" viewBox="0 0 27 25" fill="none" xmlns="http://www.w3.org/2000/svg">
<path d="M26.2075 3.25162C26.635 2.85582 26.635 2.17989 26.2075 1.7841L24.9601 0.629082C24.5767 0.274096 23.9847 0.274096 23.6013 0.629081L14.1794 9.35306C13.796 9.70805 13.204 9.70805 12.8206 9.35306L3.39869 0.629082C3.01531 0.274096 2.42326 0.274096 2.03988 0.629081L0.792462 1.7841C0.365006 2.17989 0.365006 2.85582 0.792462 3.25162L9.98825 11.7662C10.4157 12.162 10.4157 12.838 9.98825 13.2338L0.792461 21.7484C0.365005 22.1442 0.365006 22.8201 0.792462 23.2159L2.03988 24.3709C2.42326 24.7259 3.01531 24.7259 3.39869 24.3709L12.8206 15.6469C13.204 15.292 13.796 15.292 14.1794 15.6469L23.6013 24.3709C23.9847 24.7259 24.5767 24.7259 24.9601 24.3709L26.2075 23.2159C26.635 22.8201 26.635 22.1442 26.2075 21.7484L17.0117 13.2338C16.5843 12.838 16.5843 12.162 17.0117 11.7662L26.2075 3.25162Z" fill="#C9C9C9"/>
</svg>
