<svg width="20" height="21" viewBox="0 0 20 21" fill="none" xmlns="http://www.w3.org/2000/svg">
<path d="M18.0125 4.99434C18.4164 4.60166 18.4164 3.95302 18.0125 3.56035L17.7475 3.30272C17.3594 2.92538 16.7415 2.92538 16.3534 3.30272L11.0096 8.49807C10.6215 8.87541 10.0035 8.87541 9.61542 8.49807L4.27163 3.30271C3.88351 2.92537 3.2656 2.92538 2.87748 3.30272L2.61248 3.56035C2.20858 3.95302 2.20859 4.60166 2.61248 4.99434L7.87547 10.1111C8.27936 10.5038 8.27936 11.1524 7.87547 11.5451L2.61248 16.6619C2.20858 17.0546 2.20859 17.7032 2.61248 18.0959L2.87747 18.3535C3.2656 18.7309 3.88351 18.7309 4.27163 18.3535L9.61542 13.1582C10.0035 12.7808 10.6215 12.7808 11.0096 13.1582L16.3534 18.3535C16.7415 18.7309 17.3594 18.7309 17.7475 18.3535L18.0125 18.0959C18.4164 17.7032 18.4164 17.0546 18.0125 16.6619L12.7495 11.5451C12.3456 11.1524 12.3456 10.5038 12.7495 10.1111L18.0125 4.99434Z" fill="#C9C9C9"/>
</svg>
