<svg width="16" height="16" viewBox="0 0 16 16" fill="none" xmlns="http://www.w3.org/2000/svg">
<path d="M8.00003 1.33276C11.6827 1.33276 14.668 4.3181 14.668 8.00076C14.668 11.6828 11.6827 14.6681 8.00003 14.6681C4.31736 14.6681 1.33203 11.6828 1.33203 8.00076C1.33203 4.3181 4.31736 1.33276 8.00003 1.33276ZM8.00003 2.33276C7.25057 2.32464 6.50694 2.46523 5.81218 2.74641C5.11741 3.02759 4.48532 3.44378 3.95247 3.97087C3.41963 4.49797 2.99661 5.12552 2.70791 5.81719C2.41921 6.50886 2.27056 7.25093 2.27056 8.00043C2.27056 8.74994 2.41921 9.492 2.70791 10.1837C2.99661 10.8753 3.41963 11.5029 3.95247 12.03C4.48532 12.5571 5.11741 12.9733 5.81218 13.2544C6.50694 13.5356 7.25057 13.6762 8.00003 13.6681C9.48805 13.6453 10.9074 13.0381 11.9516 11.9778C12.9958 10.9174 13.5811 9.48895 13.5811 8.00076C13.5811 6.51257 12.9958 5.08408 11.9516 4.02374C10.9074 2.96339 9.48805 2.35625 8.00003 2.33343V2.33276ZM7.99736 6.99943C8.1183 6.99927 8.2352 7.04296 8.3264 7.12239C8.4176 7.20182 8.47692 7.31161 8.49336 7.43143L8.49803 7.49943L8.50003 11.1674C8.49999 11.2941 8.45187 11.4161 8.36538 11.5086C8.2789 11.6012 8.1605 11.6575 8.03411 11.6661C7.90772 11.6747 7.78277 11.6351 7.6845 11.5551C7.58623 11.4752 7.52196 11.3609 7.5047 11.2354L7.50003 11.1681L7.49803 7.5001C7.49803 7.36749 7.55071 7.24031 7.64448 7.14654C7.73825 7.05278 7.86542 7.0001 7.99803 7.0001L7.99736 6.99943ZM8.00003 4.66876C8.08922 4.66594 8.17807 4.68107 8.26129 4.71325C8.34452 4.74543 8.42044 4.79401 8.48452 4.85611C8.54861 4.9182 8.59957 4.99254 8.63437 5.0747C8.66917 5.15687 8.6871 5.2452 8.6871 5.33443C8.6871 5.42366 8.66917 5.51199 8.63437 5.59416C8.59957 5.67633 8.54861 5.75066 8.48452 5.81275C8.42044 5.87485 8.34452 5.92343 8.26129 5.95561C8.17807 5.98779 8.08922 6.00292 8.00003 6.0001C7.82713 5.99462 7.66314 5.92209 7.54278 5.79785C7.42241 5.67362 7.3551 5.50742 7.3551 5.33443C7.3551 5.16144 7.42241 4.99525 7.54278 4.87101C7.66314 4.74677 7.82713 4.67424 8.00003 4.66876Z" fill="#FF7676"/>
</svg>
