<svg width="32" height="32" viewBox="0 0 32 32" fill="none" xmlns="http://www.w3.org/2000/svg">
<path d="M6.66667 6.51667H6.51667V6.66667V11.85H4.15V6.66667C4.15 5.26951 5.26951 4.15 6.66667 4.15H25.3333C26.0008 4.15 26.6409 4.41515 27.1129 4.88711C27.5849 5.35908 27.85 5.9992 27.85 6.66667V25.3333C27.85 26.0008 27.5849 26.6409 27.1129 27.1129C26.6409 27.5849 26.0008 27.85 25.3333 27.85H6.66667C5.9992 27.85 5.35908 27.5849 4.88711 27.1129C4.41515 26.6409 4.15 26.0008 4.15 25.3333V20.15H6.51667V25.3333V25.4833H6.66667H25.3333H25.4833V25.3333V6.66667V6.51667H25.3333H6.66667ZM16.8933 17.1833H4.15V14.8167H16.8933H17.2555L16.9994 14.5606L13.6525 11.2137L15.333 9.54509L21.7879 16L15.3333 22.4545L13.6523 20.7735L16.9992 17.4396L17.2565 17.1833H16.8933Z" fill="#C9C9C9" stroke="white" stroke-width="0.3"/>
</svg>
