<svg width="23" height="20" viewBox="0 0 23 20" fill="none" xmlns="http://www.w3.org/2000/svg">
<g clip-path="url(#clip0)">
<path d="M11.25 5.625C10.836 5.63147 10.425 5.69724 10.0297 5.82031C10.2125 6.14192 10.3099 6.50504 10.3125 6.875C10.3125 7.16227 10.2559 7.44672 10.146 7.71212C10.036 7.97752 9.8749 8.21867 9.67177 8.4218C9.46865 8.62492 9.2275 8.78605 8.9621 8.89599C8.6967 9.00592 8.41224 9.0625 8.12498 9.0625C7.75502 9.05993 7.3919 8.96256 7.07029 8.77969C6.81655 9.65969 6.84613 10.5972 7.15482 11.4595C7.46352 12.3217 8.03568 13.065 8.79028 13.584C9.54487 14.103 10.4436 14.3714 11.3593 14.3513C12.2749 14.3311 13.161 14.0233 13.892 13.4716C14.623 12.9199 15.1618 12.1521 15.4323 11.2771C15.7027 10.4021 15.6909 9.46417 15.3987 8.5962C15.1064 7.72823 14.5485 6.97421 13.8039 6.44096C13.0593 5.9077 12.1658 5.62224 11.25 5.625ZM22.364 9.42969C20.2457 5.29648 16.0519 2.5 11.25 2.5C6.44803 2.5 2.2531 5.29844 0.135916 9.43008C0.0465575 9.60684 0 9.80213 0 10.0002C0 10.1983 0.0465575 10.3936 0.135916 10.5703C2.25428 14.7035 6.44803 17.5 11.25 17.5C16.0519 17.5 20.2469 14.7016 22.364 10.5699C22.4534 10.3932 22.5 10.1979 22.5 9.9998C22.5 9.80174 22.4534 9.60645 22.364 9.42969ZM11.25 15.625C7.39646 15.625 3.86365 13.4766 1.95584 10C3.86365 6.52344 7.39607 4.375 11.25 4.375C15.1039 4.375 18.6363 6.52344 20.5441 10C18.6367 13.4766 15.1039 15.625 11.25 15.625Z" fill="#C9C9C9"/>
</g>
<defs>
<clipPath id="clip0">
<rect width="22.5" height="20" fill="white"/>
</clipPath>
</defs>
</svg>
