<?xml version="1.0" encoding="UTF-8" standalone="no"?>
<svg
   xmlns:dc="http://purl.org/dc/elements/1.1/"
   xmlns:cc="http://creativecommons.org/ns#"
   xmlns:rdf="http://www.w3.org/1999/02/22-rdf-syntax-ns#"
   xmlns:svg="http://www.w3.org/2000/svg"
   xmlns="http://www.w3.org/2000/svg"
   viewBox="0 0 589.33331 489.33334"
   height="489.33334"
   width="589.33331"
   xml:space="preserve"
   id="svg2"
   version="1.1"><metadata
     id="metadata8"><rdf:RDF><cc:Work
         rdf:about=""><dc:format>image/svg+xml</dc:format><dc:type
           rdf:resource="http://purl.org/dc/dcmitype/StillImage" /></cc:Work></rdf:RDF></metadata><defs
     id="defs6"><clipPath
       id="clipPath18"
       clipPathUnits="userSpaceOnUse"><path
         id="path16"
         d="M 0,367 H 442 V 0 H 0 Z" /></clipPath></defs><g
     transform="matrix(1.3333333,0,0,-1.3333333,0,489.33333)"
     id="g10"><g
       id="g12"><g
         clip-path="url(#clipPath18)"
         id="g14"><g
           transform="translate(217.8701,167.1509)"
           id="g20"><path
             id="path22"
             style="fill:#5f6368;fill-opacity:1;fill-rule:nonzero;stroke:none"
             d="M 0,0 V -41.448 H -13.16 V 60.889 h 34.914 c 8.871,0 16.391,-2.957 22.595,-8.862 6.307,-5.905 9.452,-13.101 9.452,-21.578 0,-8.674 -3.145,-15.917 -9.452,-21.724 C 38.247,2.91 30.71,0.008 21.754,0.008 H 0 Z M 0,48.31 V 12.58 h 22.036 c 5.247,0 9.588,1.764 13.024,5.29 3.529,3.52 5.29,7.72 5.29,12.579 0,4.76 -1.761,8.909 -5.29,12.438 -3.436,3.619 -7.777,5.431 -13.024,5.431 L 0,48.318 Z" /></g><g
           transform="translate(302,198.0225)"
           id="g24"><path
             id="path26"
             style="fill:#5f6368;fill-opacity:1;fill-rule:nonzero;stroke:none"
             d="m 0,0 c 9.734,0 17.408,-2.593 23.04,-7.789 5.632,-5.196 8.435,-12.315 8.435,-21.365 V -72.319 H 18.887 v 9.716 h -0.573 c -5.435,-7.999 -12.682,-11.998 -21.741,-11.998 -7.725,0 -14.203,2.282 -19.39,6.854 -5.204,4.58 -7.803,10.289 -7.803,17.16 0,7.238 2.735,12.998 8.222,17.284 5.486,4.286 12.81,6.435 21.962,6.435 7.82,0 14.263,-1.431 19.314,-4.285 v 3.004 c 0,4.571 -1.812,8.451 -5.435,11.643 -3.632,3.196 -7.862,4.786 -12.733,4.786 -7.35,0 -13.161,-3.094 -17.451,-9.294 l -11.597,7.294 C -21.937,-4.572 -12.502,0 0,0 m -17.032,-50.877 c 0,-3.436 1.453,-6.29 4.367,-8.581 2.915,-2.281 6.315,-3.427 10.229,-3.427 5.539,0 10.461,2.052 14.802,6.145 4.342,4.102 6.512,8.905 6.512,14.426 -4.102,3.247 -9.828,4.862 -17.169,4.862 -5.341,0 -9.802,-1.29 -13.374,-3.862 -3.572,-2.573 -5.367,-5.752 -5.367,-9.563" /></g><g
           transform="translate(405.7305,195.7368)"
           id="g28"><path
             id="path30"
             style="fill:#5f6368;fill-opacity:1;fill-rule:nonzero;stroke:none"
             d="M 0,0 -43.935,-100.901 H -57.522 L -41.208,-65.598 -70.111,0 h 14.315 l 20.886,-50.31 h 0.282 L -14.314,0 Z" /></g><g
           transform="translate(164.6807,176.0854)"
           id="g32"><path
             id="path34"
             style="fill:#4285f4;fill-opacity:1;fill-rule:nonzero;stroke:none"
             d="m 0,0 c 0,4.141 -0.35,8.136 -1.013,11.96 h -55.513 v -22.647 h 31.795 c -1.364,-7.383 -5.491,-13.664 -11.755,-17.869 V -43.263 H -17.51 C -6.4,-33.025 0,-17.891 0,0" /></g><g
           transform="translate(108.1543,118.6191)"
           id="g36"><path
             id="path38"
             style="fill:#34a853;fill-opacity:1;fill-rule:nonzero;stroke:none"
             d="M 0,0 C 15.887,0 29.261,5.213 39.016,14.203 L 20.04,28.91 C 14.759,25.355 7.956,23.278 0,23.278 c -15.353,0 -28.385,10.341 -33.047,24.275 H -52.596 V 32.406 C -42.909,13.194 -22.997,0 0,0" /></g><g
           transform="translate(75.1074,166.1724)"
           id="g40"><path
             id="path42"
             style="fill:#fabb05;fill-opacity:1;fill-rule:nonzero;stroke:none"
             d="m 0,0 c -1.192,3.551 -1.846,7.341 -1.846,11.255 0,3.91 0.654,7.7 1.846,11.255 v 15.148 h -19.549 c -4.004,-7.94 -6.268,-16.905 -6.268,-26.403 0,-9.499 2.264,-18.472 6.268,-26.402 z" /></g><g
           transform="translate(108.1543,212.9521)"
           id="g44"><path
             id="path46"
             style="fill:#e94235;fill-opacity:1;fill-rule:nonzero;stroke:none"
             d="M 0,0 C 8.674,0 16.451,-2.978 22.583,-8.819 V -8.828 L 39.384,7.957 C 29.18,17.447 15.878,23.275 0,23.275 c -22.997,0 -42.909,-13.186 -52.596,-32.397 L -33.047,-24.27 C -28.385,-10.336 -15.353,0 0,0" /></g></g></g></g></svg>