<svg width="22" height="21" viewBox="0 0 22 21" fill="none" xmlns="http://www.w3.org/2000/svg">
<path fill-rule="evenodd" clip-rule="evenodd" d="M6.56988 0.0634382C7.68989 0.0124689 8.04777 0 10.8994 0H10.8961C13.7487 0 14.1052 0.0124689 15.2252 0.0634382C16.3431 0.114626 17.1065 0.291597 17.7759 0.551256C18.4672 0.819227 19.0512 1.17798 19.6353 1.76205C20.2194 2.34568 20.5781 2.9315 20.8472 3.6221C21.1053 4.28973 21.2825 5.05274 21.335 6.17056C21.3853 7.29058 21.3984 7.64846 21.3984 10.5001C21.3984 13.3518 21.3853 13.7088 21.335 14.8288C21.2825 15.9462 21.1053 16.7094 20.8472 17.3772C20.5781 18.0676 20.2194 18.6534 19.6353 19.2371C19.0519 19.8211 18.4669 20.1808 17.7766 20.449C17.1085 20.7086 16.3446 20.8856 15.2268 20.9368C14.1068 20.9877 13.75 21.0002 10.8981 21.0002C8.04667 21.0002 7.68901 20.9877 6.569 20.9368C5.4514 20.8856 4.68817 20.7086 4.0201 20.449C3.32994 20.1808 2.74412 19.8211 2.16071 19.2371C1.57686 18.6534 1.2181 18.0676 0.949693 17.377C0.690253 16.7094 0.513282 15.9464 0.461876 14.8286C0.411125 13.7085 0.398438 13.3518 0.398438 10.5001C0.398438 7.64846 0.411563 7.29036 0.461657 6.17035C0.51197 5.05296 0.689159 4.28973 0.949474 3.62188C1.21854 2.9315 1.57729 2.34568 2.16136 1.76205C2.74499 1.1782 3.33081 0.819446 4.02141 0.551256C4.68904 0.291597 5.45205 0.114626 6.56988 0.0634382ZM15.9845 3.72098C15.9845 3.02513 16.5489 2.4614 17.2446 2.4614V2.46096C17.9402 2.46096 18.5046 3.02534 18.5046 3.72098C18.5046 4.41661 17.9402 4.98099 17.2446 4.98099C16.5489 4.98099 15.9845 4.41661 15.9845 3.72098ZM11.0705 4.92188C7.89495 4.922 5.32031 7.49677 5.32031 10.6725C5.32031 13.8482 7.89508 16.4219 11.0708 16.4219C14.2465 16.4219 16.8203 13.8482 16.8203 10.6725C16.8203 7.49669 14.2462 4.92188 11.0705 4.92188ZM15.1437 10.7422C15.1437 8.53294 13.352 6.74219 11.1421 6.74219C8.93206 6.74219 7.14062 8.53294 7.14062 10.7422C7.14062 12.9512 8.93206 14.7422 11.1421 14.7422C13.352 14.7422 15.1437 12.9512 15.1437 10.7422Z" fill="#90ADA4"/>
</svg>
