<svg width="14" height="14" viewBox="0 0 14 14" fill="none" xmlns="http://www.w3.org/2000/svg">
<path d="M7.00003 0.332764C10.6827 0.332764 13.668 3.3181 13.668 7.00076C13.668 10.6828 10.6827 13.6681 7.00003 13.6681C3.31736 13.6681 0.332031 10.6828 0.332031 7.00076C0.332031 3.3181 3.31736 0.332764 7.00003 0.332764ZM7.00003 1.33276C6.25057 1.32464 5.50694 1.46523 4.81218 1.74641C4.11741 2.02759 3.48532 2.44378 2.95247 2.97087C2.41963 3.49797 1.99661 4.12552 1.70791 4.81719C1.41921 5.50886 1.27056 6.25093 1.27056 7.00043C1.27056 7.74994 1.41921 8.492 1.70791 9.18367C1.99661 9.87534 2.41963 10.5029 2.95247 11.03C3.48532 11.5571 4.11741 11.9733 4.81218 12.2544C5.50694 12.5356 6.25057 12.6762 7.00003 12.6681C8.48805 12.6453 9.90739 12.0381 10.9516 10.9778C11.9958 9.91744 12.5811 8.48895 12.5811 7.00076C12.5811 5.51257 11.9958 4.08408 10.9516 3.02374C9.90739 1.96339 8.48805 1.35625 7.00003 1.33343V1.33276ZM6.99736 5.99943C7.1183 5.99927 7.2352 6.04296 7.3264 6.12239C7.4176 6.20182 7.47692 6.31161 7.49336 6.43143L7.49803 6.49943L7.50003 10.1674C7.49999 10.2941 7.45187 10.4161 7.36538 10.5086C7.2789 10.6012 7.1605 10.6575 7.03411 10.6661C6.90772 10.6747 6.78277 10.6351 6.6845 10.5551C6.58623 10.4752 6.52196 10.3609 6.5047 10.2354L6.50003 10.1681L6.49803 6.5001C6.49803 6.36749 6.55071 6.24031 6.64448 6.14654C6.73825 6.05278 6.86542 6.0001 6.99803 6.0001L6.99736 5.99943ZM7.00003 3.66876C7.08922 3.66594 7.17807 3.68107 7.26129 3.71325C7.34452 3.74543 7.42044 3.79401 7.48452 3.85611C7.54861 3.9182 7.59957 3.99254 7.63437 4.0747C7.66917 4.15687 7.6871 4.2452 7.6871 4.33443C7.6871 4.42366 7.66917 4.51199 7.63437 4.59416C7.59957 4.67633 7.54861 4.75066 7.48452 4.81275C7.42044 4.87485 7.34452 4.92343 7.26129 4.95561C7.17807 4.98779 7.08922 5.00292 7.00003 5.0001C6.82713 4.99462 6.66314 4.92209 6.54278 4.79785C6.42241 4.67362 6.3551 4.50742 6.3551 4.33443C6.3551 4.16144 6.42241 3.99525 6.54278 3.87101C6.66314 3.74677 6.82713 3.67424 7.00003 3.66876Z" fill="#FF7676"/>
</svg>
