<svg width="36" height="22" viewBox="0 0 36 22" fill="none" xmlns="http://www.w3.org/2000/svg">
<path fill-rule="evenodd" clip-rule="evenodd" d="M35.163 10.8946C35.163 16.9115 30.2946 21.7892 24.289 21.7892C18.2835 21.7892 13.415 16.9115 13.415 10.8946C13.415 4.87767 18.2835 0 24.289 0C30.2946 0 35.163 4.87767 35.163 10.8946Z" fill="#F79F1A"/>
<path fill-rule="evenodd" clip-rule="evenodd" d="M21.748 10.8946C21.748 16.9115 16.8795 21.7892 10.874 21.7892C4.86845 21.7892 0 16.9115 0 10.8946C0 4.87767 4.86845 0 10.874 0C16.8795 0 21.748 4.87767 21.748 10.8946Z" fill="#EA001B"/>
<path fill-rule="evenodd" clip-rule="evenodd" d="M17.5818 2.31812C15.0446 4.31256 13.416 7.4118 13.416 10.8934C13.416 14.375 15.0446 17.4766 17.5818 19.471C20.119 17.4766 21.7476 14.375 21.7476 10.8934C21.7476 7.4118 20.119 4.31256 17.5818 2.31812Z" fill="#FF5F01"/>
</svg>
