<svg width="36" height="22" viewBox="0 0 36 22" fill="none" xmlns="http://www.w3.org/2000/svg">
<path fill-rule="evenodd" clip-rule="evenodd" d="M35.163 10.8941C35.163 16.911 30.2946 21.7887 24.289 21.7887C18.2835 21.7887 13.415 16.911 13.415 10.8941C13.415 4.87718 18.2835 -0.000488281 24.289 -0.000488281C30.2946 -0.000488281 35.163 4.87718 35.163 10.8941Z" fill="#F79F1A"/>
<path fill-rule="evenodd" clip-rule="evenodd" d="M21.748 10.8941C21.748 16.911 16.8795 21.7887 10.874 21.7887C4.86845 21.7887 0 16.911 0 10.8941C0 4.87718 4.86845 -0.000488281 10.874 -0.000488281C16.8795 -0.000488281 21.748 4.87718 21.748 10.8941Z" fill="#EA001B"/>
<path fill-rule="evenodd" clip-rule="evenodd" d="M17.5818 2.31787C15.0446 4.31231 13.416 7.41156 13.416 10.8931C13.416 14.3747 15.0446 17.4763 17.5818 19.4708C20.119 17.4763 21.7476 14.3747 21.7476 10.8931C21.7476 7.41156 20.119 4.31231 17.5818 2.31787Z" fill="#FF5F01"/>
</svg>
