<svg width="18" height="18" viewBox="0 0 18 18" fill="none" xmlns="http://www.w3.org/2000/svg">
<path d="M16.7303 17.7876L14.7963 15.8442L14.7007 15.7481L14.5955 15.8335C13.5991 16.6419 12.4334 17.2519 11.15 17.5704V15.8105C11.9573 15.5522 12.688 15.1461 13.342 14.6385L13.4763 14.5342L13.3561 14.4139L9.10607 10.1639L8.85 9.90787V10.27V16.6379L4.10607 11.8939L4.06213 11.85H4H0.15V6.15H4.73H5.09213L4.83607 5.89393L0.212132 1.27L1.27 0.212132L8.89393 7.83607L17.7879 16.73L16.7303 17.7876ZM11.15 5.22041C12.4632 5.97165 13.35 7.37742 13.35 9C13.35 9.10372 13.3454 9.20538 13.3372 9.30505L11.15 7.11787V5.22041ZM15.6365 11.6043C15.9601 10.7946 16.15 9.92623 16.15 9C16.15 5.80116 14.0467 3.09121 11.15 2.17906V0.419917C15.0008 1.38078 17.85 4.8571 17.85 9C17.85 10.4026 17.5211 11.7246 16.931 12.8989L15.6365 11.6043ZM8.85 4.81787L7.12213 3.09L8.85 1.36213V4.81787Z" fill="#2D6255" stroke="white" stroke-width="0.3"/>
</svg>
