<svg width="26" height="20" viewBox="0 0 26 20" fill="none" xmlns="http://www.w3.org/2000/svg">
<path d="M22.1663 0C24.0997 0 25.6663 1.56667 25.6663 3.5V16.5C25.6663 18.4333 24.0997 20 22.1663 20H3.83301C2.90475 20 2.01451 19.6313 1.35813 18.9749C0.701757 18.3185 0.333008 17.4283 0.333008 16.5V3.5C0.333008 1.56667 1.89967 0 3.83301 0H22.1663ZM23.9997 6.234L13.401 12.0633C13.292 12.1233 13.1709 12.1581 13.0466 12.1651C12.9224 12.1721 12.7981 12.1513 12.683 12.104L12.5983 12.064L1.99967 6.23333V16.5C1.99967 16.9862 2.19283 17.4525 2.53665 17.7964C2.88046 18.1402 3.34678 18.3333 3.83301 18.3333H22.1663C22.6526 18.3333 23.1189 18.1402 23.4627 17.7964C23.8065 17.4525 23.9997 16.9862 23.9997 16.5V6.234ZM22.1663 1.66667H3.83301C3.34678 1.66667 2.88046 1.85982 2.53665 2.20364C2.19283 2.54745 1.99967 3.01377 1.99967 3.5V4.33267L12.9997 10.382L23.9997 4.332V3.5C23.9997 3.01377 23.8065 2.54745 23.4627 2.20364C23.1189 1.85982 22.6526 1.66667 22.1663 1.66667Z" fill="#C9C9C9"/>
</svg>
