<svg width="16" height="16" viewBox="0 0 16 16" fill="none" xmlns="http://www.w3.org/2000/svg">
<path d="M11.9529 1.98438C11.6824 1.98503 11.4148 2.03923 11.1654 2.14384C10.916 2.24845 10.6898 2.4014 10.4999 2.59388L2.59337 10.4999L2.56237 10.6564L2.01538 13.4064L1.85938 14.1404L2.59388 13.9844L5.34387 13.4374L5.49988 13.4059L13.4064 5.49988C13.5994 5.31024 13.7526 5.08406 13.8573 4.83455C13.9619 4.58504 14.0158 4.31719 14.0158 4.04663C14.0158 3.77606 13.9619 3.50821 13.8573 3.2587C13.7526 3.00919 13.5994 2.78301 13.4064 2.59337C13.2163 2.40093 12.99 2.24803 12.7405 2.14351C12.4911 2.03898 12.2234 1.9849 11.9529 1.98438ZM11.9529 2.93738C12.2049 2.93738 12.4589 3.05237 12.7029 3.29688C13.1894 3.78288 13.1894 4.31038 12.7029 4.79688L12.3439 5.14038L10.8589 3.65588L11.2029 3.29688C11.4474 3.05237 11.7009 2.93738 11.9529 2.93738ZM10.1564 4.35938L11.6404 5.84388L5.59387 11.8899C5.26745 11.2512 4.74776 10.7319 4.10888 10.4059L10.1564 4.35938ZM3.46888 11.2189C3.76479 11.3379 4.0336 11.5156 4.25915 11.7411C4.48469 11.9667 4.66232 12.2355 4.78137 12.5314L3.14038 12.8594L3.46888 11.2189Z" fill="#C9C9C9"/>
</svg>
