<svg width="20" height="20" viewBox="0 0 20 20" fill="none" xmlns="http://www.w3.org/2000/svg">
<path d="M19.3337 9.66663C19.3337 9.11434 18.8859 8.66663 18.3337 8.66663H11.3337V1.66663C11.3337 1.11434 10.8859 0.666626 10.3337 0.666626H9.66699C9.11471 0.666626 8.66699 1.11434 8.66699 1.66663V8.66663H1.66699C1.11471 8.66663 0.666992 9.11434 0.666992 9.66663V10.3333C0.666992 10.8856 1.11471 11.3333 1.66699 11.3333H8.66699V18.3333C8.66699 18.8856 9.11471 19.3333 9.66699 19.3333H10.3337C10.8859 19.3333 11.3337 18.8856 11.3337 18.3333V11.3333H18.3337C18.8859 11.3333 19.3337 10.8856 19.3337 10.3333V9.66663Z" fill="#2D6255"/>
</svg>
