<svg width="32" height="32" viewBox="0 0 32 32" fill="none" xmlns="http://www.w3.org/2000/svg">
<circle cx="16" cy="16" r="16" fill="white"/>
<path d="M25.3337 15.6666C25.3337 15.1143 24.8859 14.6666 24.3337 14.6666H17.3337V7.66663C17.3337 7.11434 16.8859 6.66663 16.3337 6.66663H15.667C15.1147 6.66663 14.667 7.11434 14.667 7.66663V14.6666H7.66699C7.11471 14.6666 6.66699 15.1143 6.66699 15.6666V16.3333C6.66699 16.8856 7.11471 17.3333 7.66699 17.3333H14.667V24.3333C14.667 24.8856 15.1147 25.3333 15.667 25.3333H16.3337C16.8859 25.3333 17.3337 24.8856 17.3337 24.3333V17.3333H24.3337C24.8859 17.3333 25.3337 16.8856 25.3337 16.3333V15.6666Z" fill="#2D6255"/>
</svg>
