<?xml version="1.0" encoding="UTF-8" standalone="no"?>
<svg
   xmlns:dc="http://purl.org/dc/elements/1.1/"
   xmlns:cc="http://creativecommons.org/ns#"
   xmlns:rdf="http://www.w3.org/1999/02/22-rdf-syntax-ns#"
   xmlns:svg="http://www.w3.org/2000/svg"
   xmlns="http://www.w3.org/2000/svg"
   viewBox="0 0 812.59998 1077.16"
   height="1077.16"
   width="812.59998"
   xml:space="preserve"
   id="svg2"
   version="1.1"><metadata
     id="metadata8"><rdf:RDF><cc:Work
         rdf:about=""><dc:format>image/svg+xml</dc:format><dc:type
           rdf:resource="http://purl.org/dc/dcmitype/StillImage" /></cc:Work></rdf:RDF></metadata><defs
     id="defs6"><clipPath
       id="clipPath18"
       clipPathUnits="userSpaceOnUse"><path
         id="path16"
         d="M 0,807.87 H 609.45 V 0 H 0 Z" /></clipPath></defs><g
     transform="matrix(1.3333333,0,0,-1.3333333,0,1077.16)"
     id="g10"><g
       id="g12"><g
         clip-path="url(#clipPath18)"
         id="g14"><g
           transform="translate(261.4478,402.1436)"
           id="g20"><path
             id="path22"
             style="fill:#000000;fill-opacity:1;fill-rule:nonzero;stroke:none"
             d="m 0,0 c -2.441,0 -4.566,-0.76 -6.311,-2.547 -1.785,-1.863 -2.478,-4.521 -2.478,-7.17 0,-2.821 0.674,-5.572 2.412,-7.433 1.752,-1.866 3.914,-2.52 6.426,-2.52 2.549,0 4.619,1.035 6.195,2.629 1.805,1.838 2.662,4.335 2.662,7.016 0,2.937 -0.865,5.546 -2.615,7.404 C 4.787,-1.022 2.613,0 0,0 M -14.984,-36.309 V 5.216 h 6.691 V 2.164 c 0.924,1.489 2.719,2.545 4.129,3.024 1.416,0.466 2.883,0.707 4.379,0.707 3.697,0 7.648,-1.248 10.859,-4.584 2.963,-3.083 4.531,-6.831 4.531,-11.269 0,-2.038 -0.39,-4.044 -1.166,-5.968 -0.751,-1.933 -1.83,-3.635 -3.21,-5.051 -1.459,-1.529 -3.12,-2.683 -4.946,-3.464 -1.822,-0.774 -3.527,-1.168 -5.763,-1.168 -1.627,0 -3.196,0.248 -4.68,0.765 -1.459,0.471 -3.504,1.645 -4.242,2.926 v -14.391 h -6.582" /></g><g
           transform="translate(322.9219,365.835)"
           id="g24"><path
             id="path26"
             style="fill:#000000;fill-opacity:1;fill-rule:nonzero;stroke:none"
             d="m 0,0 5.647,13.094 -12.954,28.43 h 7.051 L 8.949,20.18 17.438,41.524 H 24.53 L 6.922,0 Z" /></g><g
           transform="translate(290.3047,399.5225)"
           id="g28"><path
             id="path30"
             style="fill:#000000;fill-opacity:1;fill-rule:nonzero;stroke:none"
             d="m 0,0 c -1.75,-1.857 -2.607,-4.467 -2.607,-7.404 0,-2.68 0.857,-5.178 2.662,-7.016 1.574,-1.594 3.642,-2.629 6.191,-2.629 2.518,0 4.674,0.654 6.418,2.52 1.752,1.861 2.412,4.612 2.412,7.433 0,2.649 -0.685,5.303 -2.465,7.17 C 10.854,1.873 8.736,2.621 6.297,2.621 3.678,2.621 1.508,1.599 0,0 m 14.695,-22.439 v 3.142 c -0.736,-1.281 -2.781,-2.455 -4.236,-2.926 -1.486,-0.517 -3.07,-0.765 -4.682,-0.765 -2.236,0 -3.939,0.394 -5.769,1.168 -1.821,0.781 -3.481,1.935 -4.938,3.466 -1.386,1.415 -2.465,3.116 -3.211,5.045 -0.779,1.936 -1.177,3.934 -1.177,5.972 0,4.439 1.568,8.186 4.535,11.269 3.217,3.336 7.166,4.584 10.871,4.584 1.486,0 2.953,-0.241 4.371,-0.712 1.416,-0.474 3.215,-1.53 4.139,-3.019 v 3.052 h 6.681 v -30.276 h -6.584" /></g><g
           transform="translate(354.458,426.5703)"
           id="g32"><path
             id="path34"
             style="fill:#000000;fill-opacity:1;fill-rule:nonzero;stroke:none"
             d="M 0,0 -0.344,20.216 H 6.037 V -5.292 H -3.137 L -9.49,15.649 h -0.164 l 0.363,-20.941 h -6.326 v 25.508 h 9.551 L -0.139,0 Z" /></g><g
           transform="translate(238.5669,444.4121)"
           id="g36"><path
             id="path38"
             style="fill:#000000;fill-opacity:1;fill-rule:nonzero;stroke:none"
             d="m 0,0 -3.518,-23.367 h -6.955 L -5.705,2.375 H 5.764 l 4.761,-25.742 H 3.592 L 0.154,0 Z" /></g><g
           transform="translate(268.5981,427.0942)"
           id="g40"><path
             id="path42"
             style="fill:#000000;fill-opacity:1;fill-rule:nonzero;stroke:none"
             d="M 0,0 3.186,19.692 H 13.68 L 14.256,-6.049 H 7.809 L 7.629,17.098 H 7.504 L 3.197,-6.049 h -6.519 l -4.323,23.147 h -0.144 l -0.16,-23.147 h -6.44 l 0.586,25.741 H -3.299 L -0.129,0 Z" /></g><g
           transform="translate(322.6006,424.9062)"
           id="g44"><path
             id="path46"
             style="fill:#000000;fill-opacity:1;fill-rule:nonzero;stroke:none"
             d="M 0,0 C 1.811,0 2.35,1.226 2.481,1.847 2.534,2.123 2.534,2.501 2.534,2.833 V 21.88 H 9.073 V 3.424 C 9.073,2.943 9.021,1.979 9,1.722 8.559,-3.088 4.739,-4.633 0,-4.633 c -4.73,0 -8.532,1.545 -8.968,6.355 -0.033,0.257 -0.08,1.221 -0.064,1.702 V 21.88 h 6.517 V 2.833 C -2.537,2.501 -2.505,2.123 -2.464,1.847 -2.341,1.226 -1.781,0 0,0" /></g><g
           transform="translate(217.2529,428.3105)"
           id="g48"><path
             id="path50"
             style="fill:#000000;fill-opacity:1;fill-rule:nonzero;stroke:none"
             d="m 0,0 c 0.242,-0.625 0.172,-1.425 0.051,-1.906 -0.207,-0.859 -0.787,-1.741 -2.522,-1.741 -1.605,0 -2.57,0.932 -2.57,2.341 l -0.02,2.498 h -6.894 v -1.987 c 0,-5.752 4.508,-7.476 9.338,-7.476 4.68,0 8.51,1.584 9.113,5.874 0.318,2.233 0.09,3.688 -0.016,4.231 -1.084,5.406 -10.865,6.99 -11.595,10.01 -0.125,0.534 -0.104,1.062 -0.03,1.35 0.186,0.843 0.747,1.74 2.35,1.74 1.524,0 2.406,-0.947 2.406,-2.322 v -1.613 h 6.428 v 1.808 c 0,5.616 -5.047,6.492 -8.699,6.492 -4.57,0 -8.317,-1.522 -9,-5.727 -0.176,-1.137 -0.201,-2.164 0.051,-3.456 C -10.482,4.839 -1.33,3.329 0,0" /></g><g
           transform="translate(300.9849,428.3423)"
           id="g52"><path
             id="path54"
             style="fill:#000000;fill-opacity:1;fill-rule:nonzero;stroke:none"
             d="m 0,0 c 0.258,-0.61 0.15,-1.397 0.051,-1.879 -0.196,-0.844 -0.789,-1.703 -2.479,-1.703 -1.601,0 -2.564,0.915 -2.564,2.312 v 2.477 h -6.846 v -1.982 c 0,-5.698 4.477,-7.389 9.277,-7.389 4.592,0 8.391,1.565 9,5.82 0.309,2.198 0.084,3.64 -0.033,4.198 -1.074,5.328 -10.748,6.906 -11.461,9.91 -0.119,0.499 -0.086,1.04 -0.031,1.319 0.172,0.816 0.732,1.71 2.328,1.71 1.508,0 2.379,-0.915 2.379,-2.284 v -1.588 h 6.352 v 1.786 c 0,5.549 -4.989,6.418 -8.584,6.418 -4.539,0 -8.256,-1.479 -8.914,-5.66 -0.207,-1.119 -0.233,-2.133 0.05,-3.432 C -10.369,4.807 -1.312,3.311 0,0" /></g><g
           transform="translate(376.3232,425.1655)"
           id="g56"><path
             id="path58"
             style="fill:#000000;fill-opacity:1;fill-rule:nonzero;stroke:none"
             d="M 0,0 C 1.854,0 2.51,1.162 2.629,1.864 2.67,2.154 2.688,2.521 2.686,2.847 V 6.572 H 0.055 v 3.776 H 9.172 V 3.431 C 9.172,2.949 9.152,2.594 9.08,1.729 8.652,-2.932 4.582,-4.628 0.01,-4.628 c -4.555,0 -8.606,1.696 -9.024,6.357 -0.101,0.865 -0.101,1.22 -0.101,1.702 v 10.83 c 0,0.464 0.052,1.276 0.119,1.692 0.559,4.84 4.451,6.367 9.006,6.367 4.572,0 8.59,-1.511 9.047,-6.367 0.095,-0.795 0.049,-1.692 0.049,-1.692 L 9.121,13.423 H 2.629 v 1.438 c 0,0 0,0.62 -0.09,0.986 -0.109,0.551 -0.611,1.857 -2.58,1.857 -1.848,0 -2.408,-1.237 -2.555,-1.857 -0.08,-0.345 -0.095,-0.806 -0.095,-1.225 V 2.847 c 0,-0.326 0.015,-0.693 0.045,-0.983 C -2.519,1.162 -1.871,0 0,0" /></g></g></g></g></svg>