<svg width="15" height="9" viewBox="0 0 15 9" fill="none" xmlns="http://www.w3.org/2000/svg">
<path d="M7.00028 8C6.76662 8.00046 6.54019 7.91908 6.36028 7.77L0.360276 2.77C0.156059 2.60026 0.0276347 2.35635 0.00325494 2.09192C-0.0211248 1.8275 0.0605371 1.56422 0.230276 1.36C0.400014 1.15578 0.643926 1.02736 0.908352 1.00298C1.17278 0.978601 1.43606 1.06026 1.64028 1.23L7.00028 5.71L12.3603 1.39C12.4626 1.30694 12.5803 1.2449 12.7066 1.20747C12.8329 1.17004 12.9654 1.15795 13.0965 1.17189C13.2275 1.18582 13.3545 1.22552 13.4701 1.2887C13.5857 1.35187 13.6878 1.43727 13.7703 1.54C13.8619 1.64282 13.9312 1.76345 13.974 1.89432C14.0168 2.0252 14.0321 2.1635 14.019 2.30056C14.0058 2.43762 13.9645 2.5705 13.8976 2.69085C13.8307 2.81121 13.7397 2.91646 13.6303 3L7.63028 7.83C7.44519 7.95552 7.22338 8.01537 7.00028 8Z" fill="#2D6255"/>
</svg>
