<svg width="18" height="18" viewBox="0 0 18 18" fill="none" xmlns="http://www.w3.org/2000/svg">
<path d="M4.10607 11.8939L4.06213 11.85H4H0.15V6.14998H4H4.06213L4.10607 6.10605L8.85 1.36211V16.6378L4.10607 11.8939ZM11.15 5.22039C12.4632 5.97163 13.35 7.3774 13.35 8.99998C13.35 10.623 12.4629 12.0285 11.15 12.771V5.22039ZM16.15 8.99998C16.15 5.80114 14.0467 3.09119 11.15 2.17904V0.419898C15.0008 1.38076 17.85 4.85708 17.85 8.99998C17.85 13.1429 15.0008 16.6192 11.15 17.5801V15.8209C14.0467 14.9088 16.15 12.1988 16.15 8.99998Z" fill="#2D6255" stroke="white" stroke-width="0.3"/>
</svg>
