<svg width="21" height="20" viewBox="0 0 21 20" fill="none" xmlns="http://www.w3.org/2000/svg">
<g clip-path="url(#clip0)">
<path d="M19.5904 5.00773C18.4194 5.00773 17.3389 4.62902 16.4713 3.99014C15.4762 3.25776 14.7612 2.18345 14.5087 0.945208C14.4462 0.639268 14.4125 0.323546 14.4093 0H11.0641V8.92314L11.0601 13.8108C11.0601 15.1175 10.1884 16.2254 8.98012 16.6151C8.62945 16.7282 8.25072 16.7818 7.85637 16.7606C7.353 16.7336 6.8813 16.5854 6.47132 16.3459C5.59884 15.8365 5.00731 14.9125 4.99128 13.8554C4.96603 12.2032 6.33425 10.8562 8.02549 10.8562C8.35933 10.8562 8.67994 10.9094 8.98012 11.006V8.56712V7.69038C8.66351 7.64461 8.3413 7.62074 8.01547 7.62074C6.16433 7.62074 4.43301 8.3719 3.19544 9.72516C2.26005 10.7478 1.69898 12.0526 1.61241 13.4207C1.499 15.218 2.17269 16.9265 3.47919 18.187C3.67115 18.3721 3.87274 18.5438 4.08354 18.7023C5.20369 19.5438 6.57311 20 8.01547 20C8.3413 20 8.66351 19.9765 8.98012 19.9308C10.3275 19.7359 11.5707 19.1338 12.5518 18.187C13.7573 17.0239 14.4233 15.4797 14.4306 13.8362L14.4133 6.53743C14.9884 6.97052 15.6172 7.32889 16.2921 7.60705C17.3417 8.03936 18.4547 8.25845 19.6 8.25805V5.88682V5.00694C19.6009 5.00773 19.5912 5.00773 19.5904 5.00773Z" fill="#90ADA4"/>
</g>
<defs>
<clipPath id="clip0">
<rect width="20" height="20" fill="white" transform="translate(0.600098)"/>
</clipPath>
</defs>
</svg>
