<svg width="36" height="13" viewBox="0 0 36 13" fill="none" xmlns="http://www.w3.org/2000/svg">
<path fill-rule="evenodd" clip-rule="evenodd" d="M18.3298 4.58833C18.3098 6.1813 19.7381 7.07031 20.8141 7.59882C21.9196 8.14115 22.2909 8.48888 22.2867 8.97379C22.2782 9.71605 21.4048 10.0436 20.5873 10.0563C19.1611 10.0787 18.332 9.66819 17.6727 9.35768L17.1589 11.7812C17.8203 12.0885 19.0451 12.3565 20.3151 12.3682C23.2962 12.3682 25.2467 10.8847 25.2572 8.58459C25.2688 5.66556 21.2519 5.50392 21.2793 4.19913C21.2888 3.80354 21.6633 3.38137 22.4839 3.27397C22.8901 3.21974 24.0114 3.17826 25.2825 3.76845L25.7815 1.42365C25.0979 1.17269 24.2192 0.932364 23.1253 0.932364C20.3193 0.932364 18.3457 2.43601 18.3298 4.58833ZM30.5756 1.13454C30.0313 1.13454 29.5724 1.45462 29.3678 1.94591L25.1092 12.196H28.0882L28.681 10.5446H32.3214L32.6653 12.196H35.2909L32.9997 1.13454H30.5756ZM30.9932 4.12256L31.853 8.2762H29.4985L30.9932 4.12256ZM14.7177 1.13454L12.3695 12.196H15.2082L17.5553 1.13454H14.7177ZM10.5189 1.13454L7.56417 8.66341L6.369 2.26174C6.2287 1.54714 5.67489 1.13454 5.0599 1.13454H0.229621L0.162109 1.45569C1.15369 1.67262 2.2803 2.02248 2.9628 2.39679C3.38053 2.62542 3.49974 2.82534 3.63687 3.36874L5.90063 12.196H8.9007L13.5 1.13454H10.5189Z" fill="url(#paint0_linear)"/>
<defs>
<linearGradient id="paint0_linear" x1="0.223338" y1="4.44971" x2="10.1531" y2="-9.53464" gradientUnits="userSpaceOnUse">
<stop stop-color="#222357"/>
<stop offset="1" stop-color="#254AA5"/>
</linearGradient>
</defs>
</svg>
