<svg width="36" height="13" viewBox="0 0 36 13" fill="none" xmlns="http://www.w3.org/2000/svg">
<path fill-rule="evenodd" clip-rule="evenodd" d="M18.3303 4.58858C18.3103 6.18155 19.7386 7.07055 20.8146 7.59906C21.9201 8.14139 22.2914 8.48913 22.2872 8.97404C22.2787 9.71629 21.4053 10.0438 20.5878 10.0566C19.1616 10.0789 18.3324 9.66844 17.6731 9.35792L17.1594 11.7814C17.8208 12.0887 19.0455 12.3567 20.3156 12.3684C23.2967 12.3684 25.2472 10.885 25.2577 8.58483C25.2693 5.6658 21.2523 5.50416 21.2798 4.19937C21.2893 3.80379 21.6637 3.38162 22.4844 3.27421C22.8906 3.21998 24.0119 3.17851 25.283 3.7687L25.782 1.4239C25.0984 1.17294 24.2197 0.932609 23.1258 0.932609C20.3198 0.932609 18.3462 2.43626 18.3303 4.58858ZM30.5761 1.13478C30.0318 1.13478 29.5729 1.45487 29.3682 1.94616L25.1097 12.1963H28.0887L28.6815 10.5448H32.3219L32.6658 12.1963H35.2914L33.0002 1.13478H30.5761ZM30.9937 4.1228L31.8535 8.27644H29.499L30.9937 4.1228ZM14.7182 1.13478L12.37 12.1963H15.2087L17.5558 1.13478H14.7182ZM10.5194 1.13478L7.56466 8.66365L6.36948 2.26199C6.22919 1.54738 5.67538 1.13478 5.06038 1.13478H0.23011L0.162598 1.45593C1.15418 1.67286 2.28079 2.02272 2.96329 2.39704C3.38102 2.62567 3.50022 2.82559 3.63736 3.36899L5.90112 12.1963H8.90119L13.5004 1.13478H10.5194Z" fill="url(#paint0_linear)"/>
<defs>
<linearGradient id="paint0_linear" x1="0.223826" y1="4.44995" x2="10.1535" y2="-9.5344" gradientUnits="userSpaceOnUse">
<stop stop-color="#222357"/>
<stop offset="1" stop-color="#254AA5"/>
</linearGradient>
</defs>
</svg>
