<svg width="22" height="15" viewBox="0 0 22 15" fill="none" xmlns="http://www.w3.org/2000/svg">
<path d="M11.8593 14.0411C11.8593 14.0411 12.2491 13.9915 12.4488 13.7461C12.6316 13.5213 12.6252 13.097 12.6252 13.097C12.6252 13.097 12.6009 11.1157 13.4049 10.8232C14.1972 10.5355 15.2146 12.7392 16.2943 13.5865C17.1099 14.2272 17.729 14.087 17.729 14.087L20.6142 14.0411C20.6142 14.0411 22.1228 13.9347 21.4076 12.5772C21.3484 12.466 20.9903 11.5727 19.2629 9.73766C17.4532 7.81685 17.6962 8.12751 19.8746 4.80446C21.2015 2.7809 21.7319 1.54548 21.566 1.01723C21.4086 0.511938 20.4324 0.646118 20.4324 0.646118L17.1849 0.669085C17.1849 0.669085 16.944 0.631612 16.7655 0.753703C16.5912 0.873376 16.4781 1.15261 16.4781 1.15261C16.4781 1.15261 15.9647 2.71804 15.279 4.05016C13.8328 6.85946 13.2549 7.00814 13.0182 6.83407C12.4678 6.4267 12.6052 5.19975 12.6052 4.32819C12.6052 1.60471 12.9665 0.46963 11.9026 0.175886C11.5498 0.0779715 11.2899 0.0139039 10.3866 0.00302451C9.22766 -0.0102725 8.24727 0.00785982 7.69157 0.318527C7.32181 0.525235 7.03657 0.987005 7.21089 1.0136C7.42535 1.04624 7.91132 1.16349 8.16909 1.56482C8.50188 2.08341 8.49026 3.24629 8.49026 3.24629C8.49026 3.24629 8.68147 6.45209 8.04338 6.84979C7.606 7.12298 7.00593 6.56572 5.716 4.01631C5.05571 2.71078 4.55707 1.26745 4.55707 1.26745C4.55707 1.26745 4.46093 0.997885 4.28873 0.852826C4.08061 0.677547 3.79008 0.62315 3.79008 0.62315L0.704169 0.646118C0.704169 0.646118 0.240384 0.660623 0.0702949 0.891508C-0.0807784 1.0958 0.0586739 1.5201 0.0586739 1.5201C0.0586739 1.5201 2.47479 7.9885 5.21101 11.2487C7.7201 14.2369 10.5683 14.0411 10.5683 14.0411H11.8593Z" fill="#90ADA4"/>
</svg>
