<svg width="25" height="18" viewBox="0 0 25 18" fill="none" xmlns="http://www.w3.org/2000/svg">
<path fill-rule="evenodd" clip-rule="evenodd" d="M24.0986 2.69364C23.8226 1.63332 23.0093 0.798369 21.9766 0.514996C20.1051 0 12.6001 0 12.6001 0C12.6001 0 5.09505 0 3.22346 0.514996C2.19078 0.798369 1.37751 1.63332 1.10151 2.69364C0.600098 4.61535 0.600098 8.625 0.600098 8.625C0.600098 8.625 0.600098 12.6345 1.10151 14.5564C1.37751 15.6167 2.19078 16.4516 3.22346 16.7351C5.09505 17.25 12.6001 17.25 12.6001 17.25C12.6001 17.25 20.1051 17.25 21.9766 16.7351C23.0093 16.4516 23.8226 15.6167 24.0986 14.5564C24.6001 12.6345 24.6001 8.625 24.6001 8.625C24.6001 8.625 24.6001 4.61535 24.0986 2.69364Z" fill="#90ADA4"/>
<path fill-rule="evenodd" clip-rule="evenodd" d="M10.6001 12V5L16.7251 8.50013L10.6001 12Z" fill="#F6FBFA"/>
</svg>
